PathFileType	4	(X/Y/Z)	S01_0008_Gait_markers.trc
DataRate	CameraRate	NumFrames	NumMarkers	Units	OrigDataRate	OrigDataStartFrame	OrigNumFrames
250.000000	250.000000	4	54	mm	250.000000	127	340
Frame#	Time	HEAD_ANT			R_HEAD			L_HEAD			C7			R_BACK			L_BACK			STERNUM			R_ACROMION			R_HUM_PROX			R_HUM_ANT			R_HUM_POST			R_ELBOW_LAT			R_ELBOW_MED			R_FOREARM			R_WIRST_LAT			R_WRITS_MED			R_HAND			L_ACROMION			L_HUM_PROX			L_HUM_ANT			L_HUM_POST			L_ELBOW_LAT			L_ELBOW_MED			L_FOREARM			L_WRIST_LAT			L_WIRST_MED			L_HAND			R_ILIAC			SACRUM			L_ILIAC			R_GTROCH			R_THIGH__1			R_THIGH_2			R_THIGH_3			R_THIGH_4			R_SHANK_1			R_SHANK_2			R_SHANK_3			R_SHANK_4			R_HEEL			R_FOOT_LAT			R_FOOT_MED			L_GTROCH			L_THIGH_1			L_THIGH_2			L_THIGH_3			L_THIGH_4			L_SHANK_1			L_SHANK_2			L_SHANK_3			L_SHANK_4			L_HEEL			L_FOOT_LAT			L_FOOT_MED			
		X1	Y1	Z1	X2	Y2	Z2	X3	Y3	Z3	X4	Y4	Z4	X5	Y5	Z5	X6	Y6	Z6	X7	Y7	Z7	X8	Y8	Z8	X9	Y9	Z9	X10	Y10	Z10	X11	Y11	Z11	X12	Y12	Z12	X13	Y13	Z13	X14	Y14	Z14	X15	Y15	Z15	X16	Y16	Z16	X17	Y17	Z17	X18	Y18	Z18	X19	Y19	Z19	X20	Y20	Z20	X21	Y21	Z21	X22	Y22	Z22	X23	Y23	Z23	X24	Y24	Z24	X25	Y25	Z25	X26	Y26	Z26	X27	Y27	Z27	X28	Y28	Z28	X29	Y29	Z29	X30	Y30	Z30	X31	Y31	Z31	X32	Y32	Z32	X33	Y33	Z33	X34	Y34	Z34	X35	Y35	Z35	X36	Y36	Z36	X37	Y37	Z37	X38	Y38	Z38	X39	Y39	Z39	X40	Y40	Z40	X41	Y41	Z41	X42	Y42	Z42	X43	Y43	Z43	X44	Y44	Z44	X45	Y45	Z45	X46	Y46	Z46	X47	Y47	Z47	X48	Y48	Z48	X49	Y49	Z49	X50	Y50	Z50	X51	Y51	Z51	X52	Y52	Z52	X53	Y53	Z53	X54	Y54	Z54	

128	0.508	880.7308959960938	1740.657348632812	-330.1311340332027	823.428955078125	1687.388549804688	-253.6333007812496	821.1513671875	1694.978759765625	-401.3589172363277	684.5619506835938	1521.25634765625	-329.6038208007809	613.183349609375	1325.494384765625	-262.7843627929685	605.7577514648438	1330.01025390625	-402.1488037109372	858.4887084960938	1357.625122070312	-341.9030761718747	769.9505004882812	1466.874633789062	-163.3312225341794	753.3743896484375	1303.796752929688	-73.37452697753878	823.2141723632812	1224.808959960938	-82.89481353759739	704.7308349609375	1214.0224609375	-54.93755340576145	764.4559326171875	1113.176025390625	-59.63624572753881	726.6444702148438	1107.939086914062	-134.7842254638669	906.761962890625	962.6005249023438	-98.0956573486326	954.1158447265625	914.769287109375	-149.7725677490232	902.8623046875	869.035888671875	-106.7897033691404	992.367431640625	829.9536743164062	-106.8923339843748	752.1948852539062	1481.587158203125	-502.2938537597653	703.9910888671875	1320.670288085938	-600.4210815429684	757.0198364257812	1234.518798828125	-612.4356689453123	633.4388427734375	1249.928466796875	-617.6764526367185	682.3932495117188	1140.465576171875	-636.468078613281	634.3621826171875	1138.62109375	-574.2275390624998	771.4112548828125	956.9429931640626	-642.4913330078123	808.6090087890625	893.2250366210939	-598.3878784179685	749.865478515625	875.8576660156251	-649.8228759765623	822.2763061523438	812.8048706054689	-650.2509155273435	744.4600830078125	1070.691162109375	-175.5770263671873	624.4343872070312	1045.327026367188	-354.7053527832029	748.7950439453125	1073.814575195313	-520.721252441406	687.1858520507812	933.2984619140625	-171.0149536132811	661.6101684570312	660.1796264648438	-200.0393829345702	719.8325805664062	663.277587890625	-191.5882720947264	704.0848999023438	563.6951293945312	-229.6102294921874	642.0222778320312	582.964111328125	-224.5152893066405	571.179931640625	357.0749816894532	-237.7108154296874	623.053955078125	327.9944763183594	-248.7511138916015	605.9047241210938	246.5943908691407	-272.8234863281249	544.2199096679688	263.3832092285157	-267.8287353515624	478.7735290527344	67.41519165039071	-368.0384216308594	625.6183471679688	19.08190345764166	-264.1410522460938	694.830078125	30.82520675659188	-357.3233947753906	731.3392944335938	956.8660888671876	-532.6566772460935	917.9524536132812	705.5067749023439	-521.2892456054686	861.95263671875	703.9904785156251	-540.4315185546874	883.054931640625	602.5591430664064	-513.0056762695311	941.5392456054688	627.5399780273439	-499.0776062011718	930.5640869140625	348.7945251464845	-505.7301330566406	873.2315673828125	327.9846496582032	-509.3243713378906	870.3280029296875	241.2136077880861	-494.2169189453124	933.3062133789062	247.6183929443361	-486.4590454101562	832.9352416992188	49.56919479370126	-426.1664733886719	1009.343505859375	30.97553825378429	-489.6502990722656	1041.173217773438	49.58300018310555	-396.6432189941406	
129	0.512	886.0791015625	1739.65283203125	-330.526458740234	828.8901977539062	1686.3779296875	-253.7406768798824	826.3643188476562	1693.887329101562	-401.4715576171871	690.0428466796875	1520.536376953125	-329.6991577148434	618.4829711914062	1324.774780273438	-262.9923706054685	611.0325317382812	1329.301879882812	-402.4022827148435	863.7069702148438	1356.516479492188	-342.0692138671872	775.484375	1465.905395507812	-163.4810180664059	758.927001953125	1302.909301757812	-73.43638610839815	829.0341186523438	1224.013671875	-83.15837097167942	710.6541748046875	1213.0576171875	-54.98486328124973	770.6070556640625	1112.33349609375	-59.65135192871069	732.4901733398438	1106.983154296875	-134.7188720703122	913.3851318359375	962.295166015625	-98.35826110839822	960.8926391601562	914.7474365234375	-150.0496368408201	909.8434448242188	868.8580322265625	-107.0772018432615	999.6136474609375	830.18798828125	-107.2305450439451	757.7840576171875	1480.627807617188	-502.479583740234	709.2445678710938	1319.721069335938	-600.5175170898434	761.9193725585938	1233.51904296875	-612.2933959960935	638.6015014648438	1248.848999023438	-617.7243652343748	684.8417358398438	1140.427124023438	-637.4693603515623	639.5690307617188	1137.563110351563	-573.8613281249998	776.4574584960938	955.8286743164064	-641.9266967773435	813.4290161132812	892.0402221679689	-598.3097534179685	754.6809692382812	874.8491821289064	-649.802062988281	827.0091552734375	811.6416015625001	-650.2306518554685	749.6561889648438	1069.771484375	-175.7823333740232	629.7781372070312	1044.45556640625	-354.988586425781	754.3467407226562	1072.799682617188	-520.6752929687498	691.9688110351562	932.9037475585938	-171.0598144531248	664.6099243164062	660.0985717773438	-200.0743408203124	722.841796875	662.9213256835938	-191.700485229492	706.6796875	563.6543579101562	-229.3741760253905	644.6018676757812	583.1627197265625	-224.6342773437499	572.5752563476562	357.5044860839844	-237.8744659423827	624.2974243164062	328.1445922851563	-248.8319702148437	606.8111572265625	246.7909240722657	-272.9038085937499	545.21484375	263.8720703125001	-267.9433593749999	479.0432739257812	68.28208160400399	-368.3047180175781	625.5125732421875	19.08705139160162	-264.2397155761719	694.9231567382812	30.84299278259285	-357.2702331542969	736.337890625	955.8018188476564	-532.8765869140623	922.7606201171875	704.0847167968751	-520.6281127929686	866.833740234375	702.7331542968751	-540.0078124999999	888.6078491210938	600.8643798828126	-511.7822265624999	945.716552734375	626.9683227539064	-499.3018798828124	940.001953125	348.3544311523439	-504.9125976562499	883.6978149414062	325.6815490722657	-507.9318542480468	882.2883911132812	239.6887664794923	-494.0044555664062	945.3165893554688	247.2170715332032	-484.7362365722656	850.0802612304688	46.56573486328134	-424.660400390625	1026.78173828125	31.79480934143077	-488.5992736816406	1058.177856445312	50.9153594970704	-395.5039978027344	
130	0.516	891.5887451171875	1738.790649414062	-330.6913452148434	834.3289184570312	1685.44873046875	-253.887786865234	831.67578125	1693.115844726562	-401.7841491699215	695.4075927734375	1519.746948242188	-329.9183959960934	623.7728881835938	1323.8828125	-263.273254394531	616.2376708984375	1328.555297851562	-402.5526428222653	869.04638671875	1355.404907226562	-342.002746582031	780.9752197265625	1464.977416992188	-163.7378387451169	764.5327758789062	1301.9775390625	-73.56143951415987	834.7578125	1223.298706054688	-83.34033966064426	716.5482177734375	1212.181396484375	-54.9860649108884	776.5462646484375	1111.457275390625	-59.64570999145483	738.5579833984375	1105.912475585938	-134.5581817626951	919.9967651367188	962.0303344726562	-98.58180999755838	967.4998779296875	914.6962890625	-150.3456115722654	916.8967895507812	868.5011596679688	-107.3479080200193	1006.745361328125	830.4157104492188	-107.5567855834959	763.0067749023438	1479.59521484375	-502.7641601562497	714.4725952148438	1318.570068359375	-600.4802246093747	767.3370361328125	1232.345092773438	-612.3083496093748	643.8263549804688	1247.723510742188	-617.5678100585935	690.212646484375	1139.319458007813	-637.2375488281248	644.946533203125	1136.56689453125	-573.9481811523435	781.338623046875	954.7291870117189	-642.4252929687498	818.2713012695312	890.9588623046876	-598.2133789062498	759.4843139648438	873.5570678710939	-649.3273925781248	831.6834106445312	810.4302978515626	-650.105285644531	755.3994140625	1068.747924804688	-176.320373535156	635.0646362304688	1043.548950195312	-355.116271972656	759.75830078125	1071.691284179688	-520.9647216796873	696.7171630859375	932.4149169921875	-171.0555267333982	667.8598022460938	660.33642578125	-200.7780151367186	725.8447265625	662.779541015625	-190.8573455810545	709.450927734375	563.6842041015625	-228.9158782958983	647.3851318359375	583.2943725585938	-224.8971710205077	573.9520263671875	357.8061828613282	-238.0514526367187	625.6503295898438	328.2863159179688	-248.8202972412109	607.7982177734375	246.9931030273438	-272.9385681152343	546.1817626953125	264.3508605957032	-268.1272277832031	479.3164367675781	68.9959030151368	-368.5043029785156	625.4331665039062	19.12712478637701	-264.3634338378906	694.9953002929688	30.78273391723641	-357.2868347167969	741.8338012695312	954.6797485351564	-532.8957519531248	927.45263671875	702.7291259765626	-519.9013671874999	871.5242919921875	701.2956542968751	-539.3237304687499	893.4010620117188	599.7219848632814	-511.1631774902343	950.50732421875	625.8740234375001	-498.7707214355468	949.6934204101562	347.8262634277345	-504.0500793457031	893.9458618164062	323.7985229492189	-507.1992492675781	894.5550537109375	238.0268402099611	-493.2161865234374	957.290283203125	246.9329833984376	-483.7491455078124	866.9480590820312	44.19879913330087	-423.8275451660156	1044.205810546875	32.67675399780284	-487.1869506835938	1075.0625	52.3977813720704	-394.218505859375	
131	0.52	896.9352416992188	1737.91357421875	-330.7460021972652	839.7103881835938	1684.548461914062	-254.1690063476559	837.2071533203125	1692.007690429688	-401.9481506347652	700.925537109375	1518.740600585938	-330.1082153320309	629.010498046875	1323.1201171875	-263.4343261718747	621.4168090820312	1327.759155273438	-402.7748718261716	874.5053100585938	1354.324462890625	-342.0457763671872	786.3701171875	1463.989013671875	-163.8704833984372	770.197998046875	1301.134887695312	-73.76098632812472	840.5910034179688	1222.53759765625	-83.56361389160129	722.3945922851562	1211.068481445312	-54.85491561889621	782.6296997070312	1110.512817382812	-59.54241180419897	744.2432250976562	1104.927734375	-134.5612945556638	926.4706420898438	961.7711181640625	-98.71690368652322	974.0656127929688	914.5662231445312	-150.7110290527342	923.8348388671875	868.1014404296875	-107.57315826416	1013.392272949219	830.3878173828125	-107.5121078491209	768.5280151367188	1478.633056640625	-502.995208740234	719.6073608398438	1317.516723632813	-600.5891723632809	772.4965209960938	1231.266967773438	-612.3823242187498	649.09912109375	1246.788208007813	-617.583068847656	697.8440551757812	1137.1552734375	-636.208801269531	650.1456909179688	1135.433959960938	-573.8707275390623	786.0961303710938	953.4961547851564	-642.4005737304685	823.4562377929688	889.7086791992189	-598.2719116210935	764.462890625	872.4749145507814	-649.223693847656	836.579345703125	809.2985839843751	-650.2194213867185	760.5926513671875	1067.885986328125	-176.321090698242	640.4988403320312	1042.595825195312	-355.7404174804685	764.9788818359375	1070.646240234375	-521.370666503906	701.5294189453125	932.170654296875	-171.1272888183592	670.9852905273438	660.3753051757812	-200.7657165527342	728.98095703125	662.5314331054688	-191.0826568603514	712.0747680664062	563.358154296875	-228.9657287597655	650.2781372070312	583.5810546875	-224.714630126953	575.5382690429688	358.0510253906251	-238.3409881591796	627.1253051757812	328.2492370605469	-248.8022308349609	608.8178100585938	247.1377258300782	-272.9490051269531	547.269775390625	264.7756958007813	-268.3316040039062	479.5662536621094	69.72430419921884	-368.588134765625	625.3352661132812	19.11172676086432	-264.4604187011719	695.0553588867188	30.72975540161141	-357.2672119140625	747.4026489257812	953.5254516601564	-532.9459228515623	932.2236328125	701.3412475585939	-519.9638671874999	876.179931640625	699.7823486328126	-538.9963378906249	897.7581787109375	598.3485717773439	-510.2375488281249	955.0899047851562	624.4959106445314	-497.9749145507811	958.977783203125	347.3367614746095	-502.9839477539062	903.8235473632812	322.012908935547	-506.1615600585937	906.6670532226562	236.1043395996095	-491.8142089843749	969.296875	246.6705169677736	-483.9487304687499	883.6809692382812	42.10222625732431	-422.8987731933594	1061.182006835938	33.91756057739268	-485.9957580566406	1091.536743164062	54.1769447326661	-392.9837341308594	
